<mxfile host="app.diagrams.net" modified="2023-10-22T03:34:18.636Z" agent="Mozilla/5.0 (Macintosh; Intel Mac OS X 10_15_7) AppleWebKit/537.36 (KHTML, like Gecko) Chrome/118.0.0.0 Safari/537.36" version="22.0.6" etag="8O3gDANGX0tEw2W1ajqr" type="github">
  <diagram name="Page-1" id="7Xw0q6tlHgNJ2W2UZNO_">
    <mxGraphModel>
      <root>
        <mxCell id="0" />
        <mxCell id="1" parent="0" />
      </root>
    </mxGraphModel>
  </diagram>
</mxfile>
